<svg width="28" height="28" viewBox="0 0 28 28" fill="none" xmlns="http://www.w3.org/2000/svg">
<path d="M25.0622 17.8296C25.017 17.9343 24.9478 18.0221 24.8639 18.0908C24.2138 18.9041 23.381 18.5627 23.381 18.5627L11.6579 13.0847C11.6393 13.0771 11.6215 13.0683 11.6039 13.0594L10.7309 15.0765L6.42932 13.3102L8.98661 7.40129L13.2882 9.1676L12.4152 11.1847C12.4341 11.1907 12.4529 11.197 12.4716 11.2046L24.445 15.2038C24.445 15.2038 25.4091 15.7755 25.3603 16.8325C25.3872 16.9648 25.3755 17.1058 25.318 17.2387L25.0622 17.8296ZM13.6275 20.1383C13.6275 20.5231 13.3043 20.8379 12.9093 20.8379H3.57294C3.17793 20.8379 2.85473 20.5231 2.85473 20.1383V19.3334C2.85473 18.9486 3.17793 18.6338 3.57294 18.6338H12.9093C13.3043 18.6338 13.6275 18.9486 13.6275 19.3334V20.1383ZM5.27362 13.8795C5.42067 13.5397 5.82639 13.3789 6.17519 13.5222L10.7525 15.4017C11.1014 15.5449 11.2664 15.9401 11.1194 16.2799C10.9723 16.6196 10.5667 16.7804 10.2178 16.6372L5.64048 14.7577C5.29168 14.6144 5.12657 14.2193 5.27362 13.8795ZM8.57487 6.25164C8.72193 5.9119 9.12765 5.75106 9.47645 5.89431L14.0538 7.77385C14.4026 7.91707 14.5677 8.31225 14.4206 8.652C14.2736 8.99175 13.8679 9.15258 13.5191 9.00933L8.94174 7.12979C8.59293 6.98658 8.42785 6.59139 8.57487 6.25164ZM14 2.76603e-07C6.26802 2.76603e-07 0 6.26802 0 14C0 21.732 6.26802 28 14 28C21.732 28 28 21.732 28 14C28 6.26802 21.732 2.76603e-07 14 2.76603e-07Z" fill="#F68A50"/>
</svg>
